<svg xmlns="http://www.w3.org/2000/svg" width="512" height="512" viewBox="0 0 512 512" version="1.1"><path d="M 210.560 138.650 C 184.952 163.758, 164.007 184.571, 164.017 184.900 C 164.039 185.731, 257.004 276.500, 257.832 276.500 C 258.199 276.500, 264.704 270.151, 272.287 262.390 L 286.074 248.281 263.937 226.641 L 241.800 205 294.900 205 L 348 205 348 185 L 348 165 295.500 165 C 264.324 165, 243 164.627, 243 164.083 C 243 163.578, 252.674 153.786, 264.497 142.323 L 285.995 121.481 272.415 107.240 C 264.946 99.408, 258.449 93, 257.977 93 C 257.505 93, 236.167 113.543, 210.560 138.650 M 184 453.500 L 184 460 256 460 L 328 460 328 453.500 L 328 447 256 447 L 184 447 184 453.500 M 87 506 L 87 512 256 512 L 425 512 425 506 L 425 500 256 500 L 87 500 87 506" stroke="none" fill="#dfdede" fill-rule="evenodd"/><path d="M 227.500 1.960 C 188.635 8.168, 154.196 25.597, 126.130 53.263 C 97.227 81.755, 79.430 116.744, 72.855 158 C 70.889 170.334, 71.122 201.899, 73.272 214.500 C 79.964 253.717, 97.421 287.529, 125.446 315.554 C 153.922 344.031, 189.225 361.777, 230 368.111 C 240.950 369.812, 271.050 369.812, 282 368.111 C 322.775 361.777, 358.078 344.031, 386.554 315.554 C 414.579 287.529, 432.036 253.717, 438.728 214.500 C 440.878 201.899, 441.111 170.334, 439.145 158 C 427.332 83.872, 375.853 25.980, 304 6.017 C 282.417 0.021, 250.307 -1.682, 227.500 1.960 M 210.560 138.650 C 184.952 163.758, 164.007 184.571, 164.017 184.900 C 164.039 185.731, 257.004 276.500, 257.832 276.500 C 258.199 276.500, 264.704 270.151, 272.287 262.390 L 286.074 248.281 263.937 226.641 L 241.800 205 294.900 205 L 348 205 348 185 L 348 165 295.500 165 C 264.324 165, 243 164.627, 243 164.083 C 243 163.578, 252.674 153.786, 264.497 142.323 L 285.995 121.481 272.415 107.240 C 264.946 99.408, 258.449 93, 257.977 93 C 257.505 93, 236.167 113.543, 210.560 138.650" stroke="none" fill="#fc1c1c" fill-rule="evenodd"/></svg>