<svg xmlns="http://www.w3.org/2000/svg" width="512" height="512" viewBox="0 0 512 512" version="1.1"><path d="M 352.581 93.558 C 327.325 95.379, 305.541 97.149, 304.172 97.493 C 300.513 98.411, 295.374 104.020, 294.005 108.589 C 291.640 116.482, 296.727 125.726, 304.635 127.910 C 307.133 128.599, 316.248 128.318, 335.344 126.960 C 350.280 125.899, 362.944 125.024, 363.487 125.015 C 364.029 125.007, 341.673 147.837, 313.805 175.750 C 258.897 230.747, 260.748 228.513, 262.472 237.701 C 263.395 242.623, 269.377 248.605, 274.299 249.528 C 283.487 251.252, 281.253 253.103, 336.250 198.195 C 364.163 170.327, 386.996 147.971, 386.991 148.513 C 386.986 149.056, 386.100 161.682, 385.022 176.571 C 382.848 206.605, 383.031 208.727, 388.240 213.703 C 396.108 221.221, 408.272 219.343, 413.198 209.850 C 414.738 206.882, 415.605 198.192, 418.579 155.906 C 420.528 128.183, 421.853 104.051, 421.522 102.279 C 420.751 98.150, 416.505 93.109, 412.329 91.364 C 408.110 89.601, 406.831 89.648, 352.581 93.558 M 228 263.103 C 226.625 263.640, 202.887 286.672, 175.250 314.286 C 147.612 341.900, 125.007 364.044, 125.015 363.496 C 125.024 362.948, 125.899 350.280, 126.960 335.344 C 129.097 305.283, 128.919 303.226, 123.760 298.297 C 115.883 290.771, 103.445 292.712, 98.720 302.204 C 97.260 305.137, 96.306 314.827, 93.408 356.140 C 91.466 383.838, 90.166 408.053, 90.521 409.951 C 91.368 414.484, 97.516 420.632, 102.049 421.479 C 103.947 421.834, 128.162 420.534, 155.860 418.592 C 197.173 415.694, 206.863 414.740, 209.796 413.280 C 219.288 408.555, 221.229 396.117, 213.703 388.240 C 208.727 383.031, 206.605 382.848, 176.571 385.022 C 161.682 386.100, 149.056 386.986, 148.513 386.991 C 147.971 386.996, 170.327 364.163, 198.195 336.250 C 252.395 281.962, 251.312 283.248, 249.563 275.288 C 247.433 265.587, 236.891 259.631, 228 263.103" stroke="none" fill="#fcfafb" fill-rule="evenodd"/><path d="M 53.611 1.977 C 33.121 7.499, 16.096 21.577, 7.025 40.500 C -0.554 56.309, 0 39.319, 0 256 C -0 472.681, -0.554 455.691, 7.025 471.500 C 15.682 489.558, 30.683 502.555, 50.500 509.165 L 57.500 511.500 256 511.500 L 454.500 511.500 461.500 509.165 C 484.615 501.454, 501.559 484.628, 508.909 462.085 C 510.059 458.557, 511 454.619, 511 453.335 C 511 452.051, 511.450 451, 512 451 C 512.663 451, 512.995 384.927, 512.985 254.750 C 512.975 127.679, 512.628 59.029, 512 60 C 511.236 61.182, 511.027 60.951, 511.015 58.915 C 511.007 57.493, 510.059 53.443, 508.909 49.915 C 502.699 30.867, 489.379 15.596, 471.500 7.025 C 455.682 -0.558, 472.775 -0.007, 255.436 0.060 C 68.762 0.118, 60.208 0.199, 53.611 1.977 M 0.490 256 C 0.490 364.075, 0.607 408.288, 0.750 354.250 C 0.893 300.213, 0.893 211.788, 0.750 157.750 C 0.607 103.713, 0.490 147.925, 0.490 256 M 352.581 93.558 C 327.325 95.379, 305.541 97.149, 304.172 97.493 C 300.513 98.411, 295.374 104.020, 294.005 108.589 C 291.640 116.482, 296.727 125.726, 304.635 127.910 C 307.133 128.599, 316.248 128.318, 335.344 126.960 C 350.280 125.899, 362.944 125.024, 363.487 125.015 C 364.029 125.007, 341.673 147.837, 313.805 175.750 C 258.897 230.747, 260.748 228.513, 262.472 237.701 C 263.395 242.623, 269.377 248.605, 274.299 249.528 C 283.487 251.252, 281.253 253.103, 336.250 198.195 C 364.163 170.327, 386.996 147.971, 386.991 148.513 C 386.986 149.056, 386.100 161.682, 385.022 176.571 C 382.848 206.605, 383.031 208.727, 388.240 213.703 C 396.108 221.221, 408.272 219.343, 413.198 209.850 C 414.738 206.882, 415.605 198.192, 418.579 155.906 C 420.528 128.183, 421.853 104.051, 421.522 102.279 C 420.751 98.150, 416.505 93.109, 412.329 91.364 C 408.110 89.601, 406.831 89.648, 352.581 93.558 M 228 263.103 C 226.625 263.640, 202.887 286.672, 175.250 314.286 C 147.612 341.900, 125.007 364.044, 125.015 363.496 C 125.024 362.948, 125.899 350.280, 126.960 335.344 C 129.097 305.283, 128.919 303.226, 123.760 298.297 C 115.883 290.771, 103.445 292.712, 98.720 302.204 C 97.260 305.137, 96.306 314.827, 93.408 356.140 C 91.466 383.838, 90.166 408.053, 90.521 409.951 C 91.368 414.484, 97.516 420.632, 102.049 421.479 C 103.947 421.834, 128.162 420.534, 155.860 418.592 C 197.173 415.694, 206.863 414.740, 209.796 413.280 C 219.288 408.555, 221.229 396.117, 213.703 388.240 C 208.727 383.031, 206.605 382.848, 176.571 385.022 C 161.682 386.100, 149.056 386.986, 148.513 386.991 C 147.971 386.996, 170.327 364.163, 198.195 336.250 C 252.395 281.962, 251.312 283.248, 249.563 275.288 C 247.433 265.587, 236.891 259.631, 228 263.103" stroke="none" fill="#fc3c5c" fill-rule="evenodd"/></svg>