<svg xmlns="http://www.w3.org/2000/svg" width="512" height="512" viewBox="0 0 512 512" version="1.1"><path d="M 243 58.107 C 204.426 60.492, 166.991 74.494, 135.597 98.277 C 125.200 106.154, 106.154 125.200, 98.277 135.597 C 77.744 162.701, 64.185 195.223, 59.416 228.812 C 57.452 242.644, 57.452 269.356, 59.416 283.188 C 64.185 316.777, 77.744 349.299, 98.277 376.403 C 106.154 386.800, 125.200 405.846, 135.597 413.723 C 162.701 434.256, 195.223 447.815, 228.812 452.584 C 242.644 454.548, 269.356 454.548, 283.188 452.584 C 316.777 447.815, 349.299 434.256, 376.403 413.723 C 386.800 405.846, 405.846 386.800, 413.723 376.403 C 434.256 349.299, 447.815 316.777, 452.584 283.188 C 454.548 269.356, 454.548 242.644, 452.584 228.812 C 447.815 195.223, 434.256 162.701, 413.723 135.597 C 405.846 125.200, 386.800 106.154, 376.403 98.277 C 338.021 69.199, 291.269 55.121, 243 58.107 M 226 68.002 C 185.605 74.816, 150.105 93.023, 121.564 121.564 C 97.991 145.137, 80.784 174.798, 72.002 207 C 63.945 236.542, 63.945 275.458, 72.002 305 C 86.959 359.840, 125.924 405.886, 176.809 428.854 C 189.146 434.423, 196.473 437.127, 207 439.998 C 236.542 448.055, 275.458 448.055, 305 439.998 C 359.840 425.041, 405.886 386.076, 428.854 335.191 C 434.423 322.854, 437.127 315.527, 439.998 305 C 448.055 275.458, 448.055 236.542, 439.998 207 C 425.041 152.160, 386.076 106.114, 335.191 83.146 C 316.439 74.682, 304.735 71.126, 285.267 67.978 C 269.287 65.394, 241.393 65.406, 226 68.002 M 196 259.490 C 196 334.621, 196.203 347.100, 197.417 346.823 C 199.476 346.354, 347.943 260.617, 347.974 259.880 C 347.995 259.371, 199.613 173.249, 196.851 172.167 C 196.383 171.983, 196 211.279, 196 259.490" stroke="none" fill="#fbf7f7" fill-rule="evenodd"/><path d="M 225 1.514 C 116.007 14.979, 26.946 97.022, 4.936 204.237 C -0 228.284, -1.440 262.012, 1.446 286 C 15.629 403.892, 108.108 496.371, 226 510.554 C 240.764 512.330, 271.236 512.330, 286 510.554 C 387.632 498.327, 471.885 427.572, 501.459 329.612 C 505.735 315.449, 509.684 296.228, 510.618 285.032 C 510.989 280.580, 511.677 276.700, 512.146 276.410 C 512.616 276.119, 513 266.432, 513 254.882 C 513 243.332, 512.614 234.121, 512.141 234.413 C 511.669 234.704, 510.981 231.327, 510.613 226.908 C 509.684 215.767, 505.727 196.524, 501.459 182.388 C 471.885 84.428, 387.632 13.673, 286 1.446 C 271.761 -0.267, 239.123 -0.231, 225 1.514 M 243 58.107 C 204.426 60.492, 166.991 74.494, 135.597 98.277 C 125.200 106.154, 106.154 125.200, 98.277 135.597 C 77.744 162.701, 64.185 195.223, 59.416 228.812 C 57.452 242.644, 57.452 269.356, 59.416 283.188 C 64.185 316.777, 77.744 349.299, 98.277 376.403 C 106.154 386.800, 125.200 405.846, 135.597 413.723 C 162.701 434.256, 195.223 447.815, 228.812 452.584 C 242.644 454.548, 269.356 454.548, 283.188 452.584 C 316.777 447.815, 349.299 434.256, 376.403 413.723 C 386.800 405.846, 405.846 386.800, 413.723 376.403 C 434.256 349.299, 447.815 316.777, 452.584 283.188 C 454.548 269.356, 454.548 242.644, 452.584 228.812 C 447.815 195.223, 434.256 162.701, 413.723 135.597 C 405.846 125.200, 386.800 106.154, 376.403 98.277 C 338.021 69.199, 291.269 55.121, 243 58.107 M 226 68.002 C 185.605 74.816, 150.105 93.023, 121.564 121.564 C 97.991 145.137, 80.784 174.798, 72.002 207 C 63.945 236.542, 63.945 275.458, 72.002 305 C 86.959 359.840, 125.924 405.886, 176.809 428.854 C 189.146 434.423, 196.473 437.127, 207 439.998 C 236.542 448.055, 275.458 448.055, 305 439.998 C 359.840 425.041, 405.886 386.076, 428.854 335.191 C 434.423 322.854, 437.127 315.527, 439.998 305 C 448.055 275.458, 448.055 236.542, 439.998 207 C 425.041 152.160, 386.076 106.114, 335.191 83.146 C 316.439 74.682, 304.735 71.126, 285.267 67.978 C 269.287 65.394, 241.393 65.406, 226 68.002 M 196 259.490 C 196 334.621, 196.203 347.100, 197.417 346.823 C 199.476 346.354, 347.943 260.617, 347.974 259.880 C 347.995 259.371, 199.613 173.249, 196.851 172.167 C 196.383 171.983, 196 211.279, 196 259.490 M 0.425 256 C 0.425 267.825, 0.569 272.663, 0.746 266.750 C 0.923 260.837, 0.923 251.162, 0.746 245.250 C 0.569 239.338, 0.425 244.175, 0.425 256" stroke="none" fill="#e41c1c" fill-rule="evenodd"/></svg>