<svg xmlns="http://www.w3.org/2000/svg" width="512" height="512" viewBox="0 0 512 512" version="1.1"><path d="M 226.500 22.565 C 174.133 29.681, 129.689 51.065, 92.677 86.953 C 60.624 118.034, 38.650 155.743, 27.973 197.990 C 22.306 220.413, 21.552 227.225, 21.552 256 C 21.552 284.798, 22.304 291.580, 27.995 314.099 C 42.181 370.229, 77.248 419.482, 126.500 452.452 C 145.520 465.185, 173.309 477.657, 195.522 483.430 C 217.777 489.214, 228.593 490.474, 256 490.474 C 278.254 490.474, 283.133 490.181, 294.333 488.168 C 335.323 480.800, 370.906 465.009, 402.500 440.166 C 411.515 433.077, 433.077 411.515, 440.166 402.500 C 467.873 367.264, 485.017 325.282, 489.985 280.500 C 491.268 268.934, 491.268 243.066, 489.985 231.500 C 482.139 160.784, 444.827 99.394, 385.500 59.592 C 372.263 50.711, 346.416 38.048, 331.500 33.137 C 316.835 28.307, 300.370 24.578, 284.699 22.537 C 270.221 20.651, 240.478 20.666, 226.500 22.565 M 166.463 167.245 C 166.199 167.935, 166.100 208.325, 166.242 257 L 166.500 345.500 256 345.500 L 345.500 345.500 345.500 256 L 345.500 166.500 256.221 166.245 C 185.326 166.042, 166.843 166.248, 166.463 167.245" stroke="none" fill="#ec2c2c" fill-rule="evenodd"/><path d="M 166.463 167.245 C 166.199 167.935, 166.100 208.325, 166.242 257 L 166.500 345.500 256 345.500 L 345.500 345.500 345.500 256 L 345.500 166.500 256.221 166.245 C 185.326 166.042, 166.843 166.248, 166.463 167.245" stroke="none" fill="#ece9f1" fill-rule="evenodd"/></svg>